<svg xmlns="http://www.w3.org/2000/svg" width="240" height="180" viewBox="0 0 240 180" role="img" aria-labelledby="title desc">
  <title id="title">Product placeholder</title>
  <desc id="desc">A simple book and phone product placeholder.</desc>
  <rect width="240" height="180" fill="#e6e3df"/>
  <rect x="70" y="35" width="72" height="105" rx="2" fill="#f8f8f6"/>
  <path d="M76 38h66v99H76z" fill="#fff"/>
  <path d="M70 35l-10 7v104l10-6z" fill="#d6d7df"/>
  <rect x="88" y="58" width="38" height="46" fill="#2f333a"/>
  <circle cx="107" cy="73" r="12" fill="#f3f3f1"/>
  <path d="M92 101c6-14 25-14 31 0z" fill="#f3f3f1"/>
  <rect x="91" y="112" width="39" height="3" fill="#d37b65"/>
  <rect x="86" y="120" width="48" height="2" fill="#d0d0d0"/>
  <rect x="146" y="83" width="38" height="62" rx="5" fill="#171923"/>
  <rect x="151" y="92" width="28" height="42" fill="#f7f7f5"/>
  <rect x="156" y="100" width="18" height="18" fill="#2f333a"/>
  <circle cx="165" cy="137" r="2" fill="#f7f7f5"/>
</svg>
